# xmcd CD database file
#
# Track frame offsets:
#	150
#	19428
#	44740
#	70387
#	92500
#	116499
#	143189
#	167790
#	190972
#	214891
#	237075
#	255295
#	271299
#
# Disc length: 3929 seconds
#
# Revision: 0
# Processed by: cddbd v1.5.2PL0 Copyright (c) Steve Scherf et al.
# Submitted via: CDex 1.70beta2
#
DISCID=be0f570d
DTITLE=Leo Perutz - Der Meister des Juengsten Tages
DYEAR=2007
DGENRE=Hoerbuch
TTITLE0=Track501
TTITLE1=Track502
TTITLE2=Track503
TTITLE3=Track504
TTITLE4=Track505
TTITLE5=Track506
TTITLE6=Track507
TTITLE7=Track508
TTITLE8=Track509
TTITLE9=Track510
TTITLE10=Track511
TTITLE11=Track512
TTITLE12=Track513
EXTD=YEAR: 2007
EXTT0=
EXTT1=
EXTT2=
EXTT3=
EXTT4=
EXTT5=
EXTT6=
EXTT7=
EXTT8=
EXTT9=
EXTT10=
EXTT11=
EXTT12=
PLAYORDER=
